<?xml version="1.0" standalone="no"?>
<!DOCTYPE svg PUBLIC "-//W3C//DTD SVG 20010904//EN"
 "http://www.w3.org/TR/2001/REC-SVG-20010904/DTD/svg10.dtd">
<svg version="1.0" xmlns="http://www.w3.org/2000/svg"
 width="515.000000pt" height="515.000000pt" viewBox="0 0 515.000000 515.000000"
 preserveAspectRatio="xMidYMid meet">

<g transform="translate(0.000000,515.000000) scale(0.100000,-0.100000)"
fill="#000000" stroke="none">
<path d="M2345 4995 c-105 -22 -239 -72 -315 -117 -221 -133 -372 -333 -455
-604 -16 -49 -32 -92 -37 -95 -6 -3 -42 -9 -81 -12 -187 -15 -354 -98 -496
-246 -83 -87 -159 -224 -182 -327 -16 -74 -29 -90 -85 -99 -59 -8 -186 -60
-249 -101 -123 -80 -226 -217 -277 -369 -28 -85 -36 -276 -14 -369 49 -208
207 -396 398 -474 137 -55 134 -55 603 -61 l440 -6 3 -27 c3 -21 -3 -30 -27
-43 -113 -58 -182 -186 -160 -299 30 -160 146 -253 304 -244 150 10 251 107
263 253 8 104 -11 159 -78 224 -32 31 -67 64 -79 74 -19 15 -21 28 -21 113 0
92 -1 97 -29 125 -21 20 -39 29 -63 29 -18 0 -242 1 -498 2 -461 3 -466 3
-523 26 -183 74 -287 187 -332 359 -37 141 -1 287 107 434 56 77 222 154 353
164 110 8 129 26 145 132 11 83 44 184 76 240 66 114 211 229 336 265 103 31
248 30 340 -1 175 -58 317 -201 380 -381 l22 -65 4 -925 c1 -509 0 -935 -3
-947 -3 -13 -22 -31 -43 -42 -43 -22 -89 -69 -123 -126 -20 -33 -24 -53 -24
-120 0 -137 58 -220 189 -273 47 -19 71 -23 112 -19 161 17 269 136 265 291
-2 97 -37 165 -113 225 l-58 44 0 947 c0 925 0 948 -21 1025 -26 101 -105 254
-165 323 -86 98 -216 190 -321 227 -62 22 -64 29 -32 126 46 140 134 273 243
369 160 140 408 218 609 192 82 -11 214 -47 231 -63 6 -5 16 -9 24 -9 19 0
165 -99 218 -147 23 -21 59 -60 79 -88 21 -27 41 -52 44 -55 12 -10 51 -88 51
-101 0 -8 -35 -34 -77 -59 -46 -27 -110 -77 -158 -125 -65 -65 -89 -97 -127
-175 -26 -52 -56 -131 -68 -175 -21 -80 -21 -80 -21 -1472 1 -1041 -2 -1398
-10 -1417 -7 -14 -19 -28 -28 -31 -32 -10 -81 -63 -108 -116 -24 -46 -28 -65
-27 -134 0 -118 45 -195 145 -249 79 -43 167 -47 247 -11 119 53 179 154 170
284 -3 39 -14 82 -26 106 -23 46 -83 106 -128 128 l-31 16 -7 1348 c-8 1474
-9 1440 50 1583 73 180 258 325 442 346 34 3 65 11 69 16 3 6 0 36 -8 67 -12
52 -30 79 -77 113 -20 15 -58 74 -84 130 -9 21 -22 38 -28 38 -5 0 -9 3 -8 8
9 25 -165 206 -258 269 -122 83 -266 140 -419 167 -123 22 -229 19 -360 -9z
m-598 -3115 c69 -42 80 -126 22 -174 -41 -35 -69 -40 -112 -23 -91 38 -93 157
-4 201 42 20 56 20 94 -4z m513 -455 c88 -46 72 -173 -25 -205 -64 -21 -135
36 -135 110 0 42 15 67 53 90 39 24 68 25 107 5z m725 -678 c73 -41 87 -114
32 -173 -23 -26 -43 -37 -73 -41 -37 -5 -44 -2 -82 34 -33 31 -42 47 -42 72 0
47 28 88 75 111 49 24 42 24 90 -3z"/>
<path d="M4210 4064 c0 -8 5 -12 10 -9 6 4 8 11 5 16 -9 14 -15 11 -15 -7z"/>
<path d="M4776 2983 c-2 -2 3 -23 11 -46 24 -66 12 -226 -20 -300 -40 -89
-102 -171 -160 -209 -93 -62 -107 -69 -184 -89 -68 -17 -111 -19 -412 -18
-185 0 -343 3 -353 7 -9 4 -31 29 -50 56 -72 106 -213 141 -331 81 -67 -33
-87 -54 -120 -120 -39 -77 -42 -114 -18 -188 27 -82 75 -138 143 -168 121 -53
257 -14 336 99 l23 32 337 0 c418 0 481 9 634 84 92 46 165 99 186 137 10 16
21 29 25 29 12 0 46 42 47 58 0 6 4 12 10 12 5 0 12 11 16 25 3 13 12 29 19
35 19 16 72 184 80 253 7 63 -2 196 -15 217 -6 10 -37 14 -104 15 -53 1 -98 0
-100 -2z m-1330 -678 c34 -23 49 -69 34 -105 -33 -80 -137 -80 -170 0 -23 56
22 120 85 120 17 0 40 -7 51 -15z"/>
</g>
</svg>
